<?xml version="1.0" ?>
<!-- Uploaded to: SVG Repo, www.svgrepo.com, Generator: SVG Repo Mixer Tools -->
<svg fill="#000000" width="800px" height="800px" viewBox="0 0 64 64" xmlns="http://www.w3.org/2000/svg">
<g id="a"/>
<g id="b">
<path d="M55.856,41.6045c-.3813-1.6069-.8071-3.2178-1.2646-4.7886-1.0498-3.6021-1.5913-7.4619-1.5913-8.3159,0-.1385-.0563-.2636-.1471-.3541l-4.8529-4.8529v-2.9238c0-.6909-.2896-1.3569-.7939-1.8276l-6.2886-5.8687c-.4644-.4341-1.0703-.6729-1.7056-.6729H17.5c-.8271,0-1.5,.6729-1.5,1.5v9.793l-4.8529,4.8529c-.0908,.0905-.1471,.2156-.1471,.3541,0,.854-.5415,4.7139-1.5913,8.3159-.4575,1.5708-.8833,3.1816-1.2646,4.7891-.8052,3.3921-1.061,5.8496-1.1343,7.3145-.0566,1.1528,.6831,2.1851,1.7993,2.5098,1.3018,.3789,2.207,.5708,2.6909,.5708H52.5c.4839,0,1.3892-.1919,2.6909-.5708,1.1162-.3247,1.856-1.3569,1.7993-2.5103-.0732-1.4644-.3291-3.9219-1.1343-7.3145Zm-4.563-13.6045h-3.293v-3.293l3.293,3.293Zm-4.769-8.7271c.2104,.1965,.3537,.4514,.4243,.7271h-6.4482c-.2759,0-.5-.2241-.5-.5v-6.245c.0786,.0498,.1658,.084,.2349,.1488l6.2891,5.8691Zm-29.0239-6.2729h21.5v6.5c0,.8271,.6729,1.5,1.5,1.5h6.5v7H17V13.5c0-.2759,.2241-.5,.5-.5Zm-1.5,15h-3.293l3.293-3.293v3.293Zm38.9116,22.4692c-1.5879,.4619-2.1924,.5308-2.4116,.5308H11.5c-.2192,0-.8237-.0688-2.4116-.5308-.6694-.1948-1.1138-.812-1.0796-1.5005,.0708-1.4224,.3208-3.8145,1.1079-7.1328,.3779-1.5908,.7988-3.1855,1.252-4.7397,.9263-3.1782,1.4834-6.6143,1.6055-8.0962H52.0259c.1221,1.4819,.6792,4.918,1.6055,8.0962,.4531,1.5542,.874,3.1489,1.252,4.7393,.7871,3.3188,1.0371,5.7109,1.1079,7.1328,.0342,.689-.4102,1.3062-1.0796,1.501ZM20,16.5c0-.2764,.2236-.5,.5-.5h15c.2764,0,.5,.2236,.5,.5s-.2236,.5-.5,.5h-15c-.2764,0-.5-.2236-.5-.5Zm0,4c0-.2764,.2236-.5,.5-.5h15c.2764,0,.5,.2236,.5,.5s-.2236,.5-.5,.5h-15c-.2764,0-.5-.2236-.5-.5Zm0,4c0-.2764,.2236-.5,.5-.5h23c.2764,0,.5,.2236,.5,.5s-.2236,.5-.5,.5H20.5c-.2764,0-.5-.2236-.5-.5Zm1,13c0,.2764-.2236,.5-.5,.5h-5c-.2764,0-.5-.2236-.5-.5s.2236-.5,.5-.5h5c.2764,0,.5,.2236,.5,.5Zm9,0c0,.2764-.2236,.5-.5,.5h-5c-.2764,0-.5-.2236-.5-.5s.2236-.5,.5-.5h5c.2764,0,.5,.2236,.5,.5Zm9,0c0,.2764-.2236,.5-.5,.5h-5c-.2764,0-.5-.2236-.5-.5s.2236-.5,.5-.5h5c.2764,0,.5,.2236,.5,.5Zm9,0c0,.2764-.2236,.5-.5,.5h-5c-.2764,0-.5-.2236-.5-.5s.2236-.5,.5-.5h5c.2764,0,.5,.2236,.5,.5Zm-27,7c0,.2764-.2236,.5-.5,.5h-5c-.2764,0-.5-.2236-.5-.5s.2236-.5,.5-.5h5c.2764,0,.5,.2236,.5,.5Zm9,0c0,.2764-.2236,.5-.5,.5h-5c-.2764,0-.5-.2236-.5-.5s.2236-.5,.5-.5h5c.2764,0,.5,.2236,.5,.5Zm9,0c0,.2764-.2236,.5-.5,.5h-5c-.2764,0-.5-.2236-.5-.5s.2236-.5,.5-.5h5c.2764,0,.5,.2236,.5,.5Zm9,0c0,.2764-.2236,.5-.5,.5h-5c-.2764,0-.5-.2236-.5-.5s.2236-.5,.5-.5h5c.2764,0,.5,.2236,.5,.5Z"/>
</g>
</svg>