<?xml version="1.0" encoding="utf-8"?><!-- Uploaded to: SVG Repo, www.svgrepo.com, Generator: SVG Repo Mixer Tools -->
<svg width="800px" height="800px" viewBox="0 0 24 24" fill="none" xmlns="http://www.w3.org/2000/svg">
<path fill-rule="evenodd" clip-rule="evenodd" d="M17.2929 3.29289C17.6834 2.90237 18.3166 2.90237 18.7071 3.29289L21.7071 6.29289C22.0976 6.68342 22.0976 7.31658 21.7071 7.70711L18.7071 10.7071C18.3166 11.0976 17.6834 11.0976 17.2929 10.7071C16.9024 10.3166 16.9024 9.68342 17.2929 9.29289L18.4858 8.1H17.1339C15.6006 8.1 14.2417 8.85096 13.0268 9.94141C12.6158 10.3103 11.9835 10.2762 11.6146 9.86514C11.2457 9.45413 11.2799 8.82188 11.6909 8.45299C13.0917 7.19573 14.9088 6.1 17.1339 6.1H18.6858L17.2929 4.70711C16.9024 4.31658 16.9024 3.68342 17.2929 3.29289ZM2 7.1C2 6.54772 2.44772 6.1 3 6.1C6.82463 6.1 9.24061 9.04557 11.1944 11.473C11.2677 11.5642 11.3405 11.6548 11.4128 11.7447C12.3547 12.917 13.2086 13.9797 14.1313 14.7835C15.1035 15.6305 16.0541 16.1 17.1291 16.1H18.6858L17.2929 14.7071C16.9024 14.3166 16.9024 13.6834 17.2929 13.2929C17.6834 12.9024 18.3166 12.9024 18.7071 13.2929L21.7071 16.2929C22.0976 16.6834 22.0976 17.3166 21.7071 17.7071L18.7071 20.7071C18.3166 21.0976 17.6834 21.0976 17.2929 20.7071C16.9024 20.3166 16.9024 19.6834 17.2929 19.2929L18.4858 18.1H17.1291C15.3977 18.1 13.9975 17.3195 12.8175 16.2915C11.8362 15.4366 10.94 14.3486 10.0918 13.2941C9.25289 14.3419 8.35876 15.4156 7.37784 16.2661C6.17696 17.3072 4.75087 18.1 3.00536 18.1C2.45308 18.1 2.00536 17.6523 2.00536 17.1C2.00536 16.5477 2.45308 16.1 3.00536 16.1C4.094 16.1 5.07128 15.6188 6.06772 14.7549C7.00179 13.9451 7.86818 12.8757 8.79915 11.7073C7.04692 9.6323 5.35215 8.1 3 8.1C2.44772 8.1 2 7.65229 2 7.1Z" fill="#0F1729"/>
</svg>